<svg width="65" height="65" viewBox="0 0 65 65" fill="none" xmlns="http://www.w3.org/2000/svg">
<g clip-path="url(#clip0_1101_734)">
<circle cx="32.4355" cy="32.1826" r="32" fill="#00A3FF"/>
<path fill-rule="evenodd" clip-rule="evenodd" d="M11.0027 7.71393L10.6809 7.99518L10.6089 29.3324C10.5554 45.1632 10.5737 50.7813 10.6797 51.1022C10.9408 51.8937 11.1638 51.9326 15.4544 51.9339C19.5929 51.9353 21.3219 52.0733 23.998 52.6157C27.119 53.2484 29.7287 54.2639 31.2962 55.4559C31.4602 55.5807 31.6429 55.6827 31.7024 55.6827C31.7628 55.6827 31.8105 46.2911 31.8105 34.3944V13.1063L31.5293 12.7304C28.8878 9.20043 25.8287 7.94106 18.9725 7.56081C17.749 7.49293 15.5278 7.43643 14.0363 7.43506C11.401 7.43281 11.3154 7.44056 11.0027 7.71393ZM45.6855 7.51568C43.5623 7.66418 40.6073 8.14693 39.2439 8.56806C37.5529 9.09031 36.4564 9.69593 34.9189 10.9566L34.3399 11.4314L34.3564 33.1821C34.3655 45.1449 34.4074 54.9327 34.4495 54.9327C34.4915 54.9327 34.9095 54.7588 35.3784 54.5462C37.7273 53.4811 40.9564 52.6169 44.0374 52.2287C44.9095 52.1188 47.1794 51.9932 49.0818 51.9496C52.5198 51.8707 52.5424 51.8683 52.863 51.5672L53.1855 51.2641V48.0936V44.9229L52.0918 44.9591L50.998 44.9952L50.9633 46.7139L50.9285 48.4327L50.4945 48.4411C50.2558 48.4456 49.7652 48.4532 49.4043 48.4578L48.748 48.4663L48.7134 46.6994L48.6787 44.9327H47.7447H46.8105V45.6674C46.8105 46.5989 46.6867 46.7061 45.6652 46.6577L44.873 46.6202V45.6827V44.7452L45.748 44.6827L46.623 44.6202L46.626 42.8077L46.6292 40.9952L47.6573 40.9589L48.6855 40.9226V38.4277V35.9327L48.0918 35.9074C47.7652 35.8936 47.3153 35.8919 47.0918 35.9037L46.6855 35.9252V34.7451V33.5649L45.0293 33.5301L43.373 33.4952L43.3365 32.5264L43.3 31.5577H39.9977C36.7367 31.5577 36.692 31.5542 36.434 31.2772C36.1827 31.0074 36.1742 30.8911 36.2104 28.2189C36.2438 25.7514 36.2729 25.4162 36.4709 25.2182C36.6559 25.0331 36.9604 24.9881 38.2645 24.9534C39.1284 24.9306 39.9687 24.9453 40.1319 24.9862C40.6015 25.1041 40.9355 25.5493 40.9355 26.0573C40.9355 26.8404 40.7333 26.9788 39.4797 27.0539L38.373 27.1202L38.3373 28.3389L38.3015 29.5577H40.8009H43.3004L43.3368 28.5264L43.373 27.4952L46.0242 27.4614L48.6753 27.4277L48.7117 28.4614L48.748 29.4952H50.998H53.248L53.2807 18.9327C53.3034 11.5912 53.2723 8.27031 53.1785 8.04268C52.945 7.47581 52.653 7.43106 49.3359 7.45456C47.6375 7.46656 45.9949 7.49406 45.6855 7.51568ZM56.0293 11.3938C55.8222 11.4479 55.8104 12.5138 55.8078 31.5356C55.805 51.2648 55.8007 51.6298 55.5582 52.1642C55.1577 53.0468 54.5942 53.6514 53.7067 54.1511L52.873 54.6202L49.1855 54.7024C45.0789 54.7939 43.2117 54.9879 40.748 55.5791C37.0732 56.4609 34.8633 57.7174 32.9265 60.0264C32.566 60.4562 32.2337 60.8077 32.1879 60.8077C32.1422 60.8077 31.839 60.4189 31.5144 59.9438C30.6855 58.7307 29.1899 57.3443 28.0859 56.7658C25.1553 55.2302 20.7355 54.5194 14.4355 54.5709C11.5802 54.5942 10.6974 54.5131 10.0134 54.1642C9.43455 53.8689 8.55205 52.8631 8.2778 52.1859L7.99805 51.4952L7.93555 31.4952L7.87305 11.4952H6.92555C6.08667 11.4952 5.9268 11.5342 5.53205 11.8356C5.2868 12.0227 4.96792 12.4202 4.8233 12.7188L4.56055 13.2616V36.5707V59.8797L4.8418 60.4358C5.00617 60.7609 5.34817 61.1483 5.66505 61.3686C6.14642 61.7031 6.3073 61.7448 7.10255 61.7422C7.92405 61.7393 8.10992 61.6849 9.35242 61.0838C11.0222 60.2761 13.6249 59.3879 15.123 59.1148C16.6372 58.8387 20.6412 58.7333 22.3204 58.9253C25.8365 59.3274 29.6243 60.6531 31.7773 62.2351C32.6319 62.8629 32.7113 62.8904 32.9264 62.6312C33.0069 62.5342 33.5342 62.1498 34.0979 61.7772C36.7865 59.9999 40.8003 59.0158 45.373 59.0127C49.0397 59.0102 51.5267 59.5863 54.949 61.2307C56.6473 62.0466 57.5112 62.0324 58.4905 61.1726C59.3854 60.3868 59.3115 62.5409 59.3334 36.5921C59.3512 15.4122 59.3338 13.0836 59.1554 12.7452C58.5835 11.6599 57.2377 11.0781 56.0293 11.3938ZM14.0585 13.6642C13.819 13.7914 13.4964 14.0811 13.3418 14.3076C13.0623 14.7171 13.0605 14.7499 13.0605 19.4492V24.1787L13.4043 24.5623C13.6098 24.7917 13.9492 24.9923 14.248 25.0613C14.9394 25.2209 22.6302 25.2141 23.2088 25.0533C23.4622 24.9829 23.8137 24.7539 23.99 24.5444L24.3105 24.1636V19.3588V14.5541L23.9043 14.1117C23.647 13.8317 23.3147 13.6272 22.998 13.5541C22.723 13.4906 20.6972 13.4373 18.496 13.4357C14.8378 13.4329 14.4568 13.4526 14.0585 13.6642ZM42.498 14.1712C41.2173 14.4892 41.1854 14.6102 41.1863 19.1474C41.1867 21.2258 41.2418 23.0676 41.311 23.3169C41.3793 23.5627 41.5803 23.9002 41.7578 24.0669L42.0803 24.3702L45.9142 24.4092C48.4554 24.4351 49.9063 24.4017 50.2173 24.3103C51.1075 24.0486 51.1038 24.0713 51.0739 19.2054L51.0473 14.8702L50.6767 14.4952L50.306 14.1202L46.5895 14.0991C44.5454 14.0876 42.7043 14.1199 42.498 14.1712ZM36.9613 14.3109C36.4765 14.5101 36.3105 15.1443 36.3105 16.7978C36.3105 17.6449 36.3719 18.4306 36.4518 18.6058C36.7527 19.2663 37.8269 19.3316 38.309 18.7187C38.5325 18.4346 38.5605 18.2131 38.5605 16.7303C38.5605 15.0836 38.556 15.0567 38.2168 14.6891C37.83 14.2699 37.3863 14.1363 36.9613 14.3109ZM15.4937 15.6767C14.9335 15.9037 14.9215 15.9873 14.9608 19.4172C14.9944 22.3539 15.02 22.6961 15.2224 22.8972C15.4269 23.1006 15.7262 23.1184 18.6148 23.1007C21.9802 23.0801 22.2285 23.0397 22.4415 22.4794C22.507 22.3073 22.5603 20.8904 22.56 19.3308C22.5597 16.7698 22.5367 16.4577 22.3232 16.1074C22.1469 15.8184 21.9639 15.6993 21.6049 15.6401C20.9049 15.5244 15.7938 15.5551 15.4937 15.6767ZM43.3394 16.2872C43.217 16.3648 43.1885 17.0569 43.2144 19.3166L43.248 22.2452L46.033 22.2788C47.8114 22.3003 48.907 22.2648 49.0643 22.1807C49.2975 22.0558 49.3105 21.9073 49.3105 19.3576C49.3105 17.7414 49.2588 16.5697 49.1812 16.4244C49.0592 16.1964 48.8934 16.1828 46.2749 16.1846C44.7477 16.1857 43.4267 16.2318 43.3394 16.2872ZM36.5174 20.6613C36.2435 20.9639 36.2332 22.2667 36.5017 22.6499C36.8365 23.1281 38.171 23.1794 38.619 22.7313C38.8824 22.4679 38.8803 21.0879 38.6159 20.7106C38.4474 20.4698 38.308 20.4327 37.5728 20.4327C36.9095 20.4327 36.6792 20.4826 36.5174 20.6613ZM13.4802 28.5466C12.8274 28.8344 12.5888 29.8359 13.0605 30.3077C13.304 30.5512 13.4772 30.5577 19.6638 30.5577H26.0169L26.3059 30.2501C26.5415 29.9993 26.5808 29.8558 26.5184 29.4719C26.3732 28.5767 26.3145 28.5636 22.4244 28.5604C20.5277 28.5589 17.7995 28.5286 16.3619 28.4931C14.8372 28.4553 13.6364 28.4777 13.4802 28.5466ZM43.4355 30.4327V31.3077H45.0605H46.6855V32.3702V33.4327H47.6805H48.6754L48.7118 34.4639L48.748 35.4952H49.8105H50.873L50.9094 34.5311L50.9459 33.5669L52.0969 33.5311L53.248 33.4952L53.2845 32.5293L53.3209 31.5633L51.0345 31.5293L48.748 31.4952L48.7115 30.5264L48.675 29.5577H46.0553H43.4355V30.4327ZM19.5958 33.5486C13.9079 33.6134 13.2949 33.6403 13.0679 33.8348C12.5627 34.2674 12.5824 35.1524 13.1048 35.4947C13.3519 35.6566 14.4274 35.6971 20.3255 35.7664L27.2559 35.8479L27.7208 35.4398C28.2078 35.0123 28.293 34.6803 28.0517 34.1506C27.728 33.4404 27.9128 33.4536 19.5958 33.5486ZM38.3939 33.5161C38.348 33.5618 38.3105 34.0399 38.3105 34.5786V35.5577H37.3239C36.157 35.5577 36.1855 35.5214 36.1855 37.0054C36.1855 38.4082 36.3413 38.5844 37.5349 38.5321L38.373 38.4952V37.1827V35.8702L39.5918 35.8344L40.8105 35.7987V34.6157V33.4327H39.6439C39.0022 33.4327 38.4397 33.4702 38.3939 33.5161ZM50.9355 38.4229V41.0476L49.9043 41.0839L48.873 41.1202L48.8384 42.9014L48.8037 44.6827H49.802H50.8004L50.8368 43.6514L50.873 42.6202L52.0938 42.5844L53.3147 42.5486L53.2813 39.2094L53.248 35.8702L52.0918 35.8342L50.9355 35.7983V38.4229ZM41.3412 36.5889C40.9688 37.0544 41.1012 38.1868 41.5565 38.4306C41.6872 38.5004 42.5447 38.5577 43.462 38.5577C45.5132 38.5577 45.6855 38.4789 45.6855 37.5424C45.6855 36.4193 45.7125 36.4327 43.4464 36.4327C42.0122 36.4327 41.4317 36.4758 41.3412 36.5889ZM13.2202 38.6774C12.5325 39.0998 12.5113 40.0216 13.1812 40.3679C13.4958 40.5306 14.4947 40.5577 20.185 40.5577H26.8219L27.1287 40.2508C27.5498 39.8298 27.543 39.2022 27.113 38.7982L26.7905 38.4952L20.2068 38.4626C13.834 38.4311 13.6102 38.4379 13.2202 38.6774ZM43.5189 39.0161C43.473 39.0618 43.4355 39.5118 43.4355 40.0161V40.9327H40.1174H36.7992L36.4924 41.2396L36.1855 41.5463V44.7396C36.1855 47.7661 36.1985 47.9457 36.4355 48.1827C36.6724 48.4196 36.8522 48.4327 39.8492 48.4327C42.1837 48.4327 43.0683 48.3917 43.2248 48.2764C43.49 48.0811 43.5329 47.4929 43.5485 43.8389L43.5605 41.0577H44.5459C45.4622 41.0577 45.5367 41.0379 45.6068 40.7764C45.7365 40.2919 45.6923 39.2394 45.5355 39.0827C45.3773 38.9244 43.6669 38.8679 43.5189 39.0161ZM38.2132 44.5853L38.248 46.2452H39.873H41.498V44.6202V42.9952L39.8382 42.9603L38.1783 42.9254L38.2132 44.5853ZM13.498 43.5486C12.7793 43.8492 12.5588 44.7111 13.0632 45.2481L13.3542 45.5577H18.213H23.0719L23.3787 45.2508C23.7565 44.8731 23.7873 44.2112 23.4467 43.7903L23.2078 43.4952L18.4779 43.4696C15.8765 43.4556 13.6355 43.4911 13.498 43.5486Z" fill="black"/>
<path fill-rule="evenodd" clip-rule="evenodd" d="M11.0027 7.71393L10.6809 7.99518L10.6089 29.3324C10.5554 45.1632 10.5737 50.7813 10.6797 51.1022C10.9408 51.8937 11.1638 51.9326 15.4544 51.9339C19.5929 51.9353 21.3219 52.0733 23.998 52.6157C27.119 53.2484 29.7287 54.2639 31.2962 55.4559C31.4602 55.5807 31.6429 55.6827 31.7024 55.6827C31.7628 55.6827 31.8105 46.2911 31.8105 34.3944V13.1063L31.5293 12.7304C28.8878 9.20043 25.8287 7.94106 18.9725 7.56081C17.749 7.49293 15.5278 7.43643 14.0363 7.43506C11.401 7.43281 11.3154 7.44056 11.0027 7.71393ZM45.6855 7.51568C43.5623 7.66418 40.6073 8.14693 39.2439 8.56806C37.5529 9.09031 36.4564 9.69593 34.9189 10.9566L34.3399 11.4314L34.3564 33.1821C34.3655 45.1449 34.4074 54.9327 34.4495 54.9327C34.4915 54.9327 34.9095 54.7588 35.3784 54.5462C37.7273 53.4811 40.9564 52.6169 44.0374 52.2287C44.9095 52.1188 47.1794 51.9932 49.0818 51.9496C52.5198 51.8707 52.5424 51.8683 52.863 51.5672L53.1855 51.2641V48.0936V44.9229L52.0918 44.9591L50.998 44.9952L50.9633 46.7139L50.9285 48.4327L50.4945 48.4411C50.2558 48.4456 49.7652 48.4532 49.4043 48.4578L48.748 48.4663L48.7134 46.6994L48.6787 44.9327H47.7447H46.8105V45.6674C46.8105 46.5989 46.6867 46.7061 45.6652 46.6577L44.873 46.6202V45.6827V44.7452L45.748 44.6827L46.623 44.6202L46.626 42.8077L46.6292 40.9952L47.6573 40.9589L48.6855 40.9226V38.4277V35.9327L48.0918 35.9074C47.7652 35.8936 47.3153 35.8919 47.0918 35.9037L46.6855 35.9252V34.7451V33.5649L45.0293 33.5301L43.373 33.4952L43.3365 32.5264L43.3 31.5577H39.9977C36.7367 31.5577 36.692 31.5542 36.434 31.2772C36.1827 31.0074 36.1742 30.8911 36.2104 28.2189C36.2438 25.7514 36.2729 25.4162 36.4709 25.2182C36.6559 25.0331 36.9604 24.9881 38.2645 24.9534C39.1284 24.9306 39.9687 24.9453 40.1319 24.9862C40.6015 25.1041 40.9355 25.5493 40.9355 26.0573C40.9355 26.8404 40.7333 26.9788 39.4797 27.0539L38.373 27.1202L38.3373 28.3389L38.3015 29.5577H40.8009H43.3004L43.3368 28.5264L43.373 27.4952L46.0242 27.4614L48.6753 27.4277L48.7117 28.4614L48.748 29.4952H50.998H53.248L53.2807 18.9327C53.3034 11.5912 53.2723 8.27031 53.1785 8.04268C52.945 7.47581 52.653 7.43106 49.3359 7.45456C47.6375 7.46656 45.9949 7.49406 45.6855 7.51568ZM56.0293 11.3938C55.8222 11.4479 55.8104 12.5138 55.8078 31.5356C55.805 51.2648 55.8007 51.6298 55.5582 52.1642C55.1577 53.0468 54.5942 53.6514 53.7067 54.1511L52.873 54.6202L49.1855 54.7024C45.0789 54.7939 43.2117 54.9879 40.748 55.5791C37.0732 56.4609 34.8633 57.7174 32.9265 60.0264C32.566 60.4562 32.2337 60.8077 32.1879 60.8077C32.1422 60.8077 31.839 60.4189 31.5144 59.9438C30.6855 58.7307 29.1899 57.3443 28.0859 56.7658C25.1553 55.2302 20.7355 54.5194 14.4355 54.5709C11.5802 54.5942 10.6974 54.5131 10.0134 54.1642C9.43455 53.8689 8.55205 52.8631 8.2778 52.1859L7.99805 51.4952L7.93555 31.4952L7.87305 11.4952H6.92555C6.08667 11.4952 5.9268 11.5342 5.53205 11.8356C5.2868 12.0227 4.96792 12.4202 4.8233 12.7188L4.56055 13.2616V36.5707V59.8797L4.8418 60.4358C5.00617 60.7609 5.34817 61.1483 5.66505 61.3686C6.14642 61.7031 6.3073 61.7448 7.10255 61.7422C7.92405 61.7393 8.10992 61.6849 9.35242 61.0838C11.0222 60.2761 13.6249 59.3879 15.123 59.1148C16.6372 58.8387 20.6412 58.7333 22.3204 58.9253C25.8365 59.3274 29.6243 60.6531 31.7773 62.2351C32.6319 62.8629 32.7113 62.8904 32.9264 62.6312C33.0069 62.5342 33.5342 62.1498 34.0979 61.7772C36.7865 59.9999 40.8003 59.0158 45.373 59.0127C49.0397 59.0102 51.5267 59.5863 54.949 61.2307C56.6473 62.0466 57.5112 62.0324 58.4905 61.1726C59.3854 60.3868 59.3115 62.5409 59.3334 36.5921C59.3512 15.4122 59.3338 13.0836 59.1554 12.7452C58.5835 11.6599 57.2377 11.0781 56.0293 11.3938ZM14.0585 13.6642C13.819 13.7914 13.4964 14.0811 13.3418 14.3076C13.0623 14.7171 13.0605 14.7499 13.0605 19.4492V24.1787L13.4043 24.5623C13.6098 24.7917 13.9492 24.9923 14.248 25.0613C14.9394 25.2209 22.6302 25.2141 23.2088 25.0533C23.4622 24.9829 23.8137 24.7539 23.99 24.5444L24.3105 24.1636V19.3588V14.5541L23.9043 14.1117C23.647 13.8317 23.3147 13.6272 22.998 13.5541C22.723 13.4906 20.6972 13.4373 18.496 13.4357C14.8378 13.4329 14.4568 13.4526 14.0585 13.6642ZM42.498 14.1712C41.2173 14.4892 41.1854 14.6102 41.1863 19.1474C41.1867 21.2258 41.2418 23.0676 41.311 23.3169C41.3793 23.5627 41.5803 23.9002 41.7578 24.0669L42.0803 24.3702L45.9142 24.4092C48.4554 24.4351 49.9063 24.4017 50.2173 24.3103C51.1075 24.0486 51.1038 24.0713 51.0739 19.2054L51.0473 14.8702L50.6767 14.4952L50.306 14.1202L46.5895 14.0991C44.5454 14.0876 42.7043 14.1199 42.498 14.1712ZM36.9613 14.3109C36.4765 14.5101 36.3105 15.1443 36.3105 16.7978C36.3105 17.6449 36.3719 18.4306 36.4518 18.6058C36.7527 19.2663 37.8269 19.3316 38.309 18.7187C38.5325 18.4346 38.5605 18.2131 38.5605 16.7303C38.5605 15.0836 38.556 15.0567 38.2168 14.6891C37.83 14.2699 37.3863 14.1363 36.9613 14.3109ZM15.4937 15.6767C14.9335 15.9037 14.9215 15.9873 14.9608 19.4172C14.9944 22.3539 15.02 22.6961 15.2224 22.8972C15.4269 23.1006 15.7262 23.1184 18.6148 23.1007C21.9802 23.0801 22.2285 23.0397 22.4415 22.4794C22.507 22.3073 22.5603 20.8904 22.56 19.3308C22.5597 16.7698 22.5367 16.4577 22.3232 16.1074C22.1469 15.8184 21.9639 15.6993 21.6049 15.6401C20.9049 15.5244 15.7938 15.5551 15.4937 15.6767ZM43.3394 16.2872C43.217 16.3648 43.1885 17.0569 43.2144 19.3166L43.248 22.2452L46.033 22.2788C47.8114 22.3003 48.907 22.2648 49.0643 22.1807C49.2975 22.0558 49.3105 21.9073 49.3105 19.3576C49.3105 17.7414 49.2588 16.5697 49.1812 16.4244C49.0592 16.1964 48.8934 16.1828 46.2749 16.1846C44.7477 16.1857 43.4267 16.2318 43.3394 16.2872ZM36.5174 20.6613C36.2435 20.9639 36.2332 22.2667 36.5017 22.6499C36.8365 23.1281 38.171 23.1794 38.619 22.7313C38.8824 22.4679 38.8803 21.0879 38.6159 20.7106C38.4474 20.4698 38.308 20.4327 37.5728 20.4327C36.9095 20.4327 36.6792 20.4826 36.5174 20.6613ZM13.4802 28.5466C12.8274 28.8344 12.5888 29.8359 13.0605 30.3077C13.304 30.5512 13.4772 30.5577 19.6638 30.5577H26.0169L26.3059 30.2501C26.5415 29.9993 26.5808 29.8558 26.5184 29.4719C26.3732 28.5767 26.3145 28.5636 22.4244 28.5604C20.5277 28.5589 17.7995 28.5286 16.3619 28.4931C14.8372 28.4553 13.6364 28.4777 13.4802 28.5466ZM43.4355 30.4327V31.3077H45.0605H46.6855V32.3702V33.4327H47.6805H48.6754L48.7118 34.4639L48.748 35.4952H49.8105H50.873L50.9094 34.5311L50.9459 33.5669L52.0969 33.5311L53.248 33.4952L53.2845 32.5293L53.3209 31.5633L51.0345 31.5293L48.748 31.4952L48.7115 30.5264L48.675 29.5577H46.0553H43.4355V30.4327ZM19.5958 33.5486C13.9079 33.6134 13.2949 33.6403 13.0679 33.8348C12.5627 34.2674 12.5824 35.1524 13.1048 35.4947C13.3519 35.6566 14.4274 35.6971 20.3255 35.7664L27.2559 35.8479L27.7208 35.4398C28.2078 35.0123 28.293 34.6803 28.0517 34.1506C27.728 33.4404 27.9128 33.4536 19.5958 33.5486ZM38.3939 33.5161C38.348 33.5618 38.3105 34.0399 38.3105 34.5786V35.5577H37.3239C36.157 35.5577 36.1855 35.5214 36.1855 37.0054C36.1855 38.4082 36.3413 38.5844 37.5349 38.5321L38.373 38.4952V37.1827V35.8702L39.5918 35.8344L40.8105 35.7987V34.6157V33.4327H39.6439C39.0022 33.4327 38.4397 33.4702 38.3939 33.5161ZM50.9355 38.4229V41.0476L49.9043 41.0839L48.873 41.1202L48.8384 42.9014L48.8037 44.6827H49.802H50.8004L50.8368 43.6514L50.873 42.6202L52.0938 42.5844L53.3147 42.5486L53.2813 39.2094L53.248 35.8702L52.0918 35.8342L50.9355 35.7983V38.4229ZM41.3412 36.5889C40.9688 37.0544 41.1012 38.1868 41.5565 38.4306C41.6872 38.5004 42.5447 38.5577 43.462 38.5577C45.5132 38.5577 45.6855 38.4789 45.6855 37.5424C45.6855 36.4193 45.7125 36.4327 43.4464 36.4327C42.0122 36.4327 41.4317 36.4758 41.3412 36.5889ZM13.2202 38.6774C12.5325 39.0998 12.5113 40.0216 13.1812 40.3679C13.4958 40.5306 14.4947 40.5577 20.185 40.5577H26.8219L27.1287 40.2508C27.5498 39.8298 27.543 39.2022 27.113 38.7982L26.7905 38.4952L20.2068 38.4626C13.834 38.4311 13.6102 38.4379 13.2202 38.6774ZM43.5189 39.0161C43.473 39.0618 43.4355 39.5118 43.4355 40.0161V40.9327H40.1174H36.7992L36.4924 41.2396L36.1855 41.5463V44.7396C36.1855 47.7661 36.1985 47.9457 36.4355 48.1827C36.6724 48.4196 36.8522 48.4327 39.8492 48.4327C42.1837 48.4327 43.0683 48.3917 43.2248 48.2764C43.49 48.0811 43.5329 47.4929 43.5485 43.8389L43.5605 41.0577H44.5459C45.4622 41.0577 45.5367 41.0379 45.6068 40.7764C45.7365 40.2919 45.6923 39.2394 45.5355 39.0827C45.3773 38.9244 43.6669 38.8679 43.5189 39.0161ZM38.2132 44.5853L38.248 46.2452H39.873H41.498V44.6202V42.9952L39.8382 42.9603L38.1783 42.9254L38.2132 44.5853ZM13.498 43.5486C12.7793 43.8492 12.5588 44.7111 13.0632 45.2481L13.3542 45.5577H18.213H23.0719L23.3787 45.2508C23.7565 44.8731 23.7873 44.2112 23.4467 43.7903L23.2078 43.4952L18.4779 43.4696C15.8765 43.4556 13.6355 43.4911 13.498 43.5486Z" fill="black"/>
</g>
<defs>
<clipPath id="clip0_1101_734">
<rect x="0.435547" y="0.182617" width="64" height="64" rx="32" fill="white"/>
</clipPath>
</defs>
</svg>
